<mxfile host="app.diagrams.net" modified="2023-11-15T14:11:28.467Z" agent="Mozilla/5.0 (Windows NT 10.0; Win64; x64) AppleWebKit/537.36 (KHTML, like Gecko) Chrome/118.0.0.0 Safari/537.36 Edg/118.0.2088.69" etag="-i_xpsVtS-MfF902wDPZ" version="22.1.1" type="device">
  <diagram name="第 1 页" id="t_qxIJd-EhDpkBXFyoIc">
    <mxGraphModel dx="485" dy="266" grid="1" gridSize="10" guides="1" tooltips="1" connect="1" arrows="1" fold="1" page="1" pageScale="1" pageWidth="827" pageHeight="1169" math="0" shadow="0">
      <root>
        <mxCell id="0" />
        <mxCell id="1" parent="0" />
        <mxCell id="hruWKEGabwUJ3pxfg4BR-1" value="x1" style="rounded=0;whiteSpace=wrap;html=1;" vertex="1" parent="1">
          <mxGeometry x="230" y="220" width="50" height="30" as="geometry" />
        </mxCell>
        <mxCell id="hruWKEGabwUJ3pxfg4BR-2" value="x2" style="rounded=0;whiteSpace=wrap;html=1;" vertex="1" parent="1">
          <mxGeometry x="230" y="260" width="50" height="30" as="geometry" />
        </mxCell>
        <mxCell id="hruWKEGabwUJ3pxfg4BR-3" value="x3" style="rounded=0;whiteSpace=wrap;html=1;" vertex="1" parent="1">
          <mxGeometry x="230" y="300" width="50" height="30" as="geometry" />
        </mxCell>
        <mxCell id="hruWKEGabwUJ3pxfg4BR-4" value="-1" style="rounded=0;whiteSpace=wrap;html=1;" vertex="1" parent="1">
          <mxGeometry x="280" y="220" width="50" height="30" as="geometry" />
        </mxCell>
        <mxCell id="hruWKEGabwUJ3pxfg4BR-5" value="3" style="rounded=0;whiteSpace=wrap;html=1;" vertex="1" parent="1">
          <mxGeometry x="330" y="220" width="50" height="30" as="geometry" />
        </mxCell>
        <mxCell id="hruWKEGabwUJ3pxfg4BR-6" value="2" style="rounded=0;whiteSpace=wrap;html=1;" vertex="1" parent="1">
          <mxGeometry x="380" y="220" width="50" height="30" as="geometry" />
        </mxCell>
        <mxCell id="hruWKEGabwUJ3pxfg4BR-7" value="-3" style="rounded=0;whiteSpace=wrap;html=1;" vertex="1" parent="1">
          <mxGeometry x="280" y="260" width="50" height="30" as="geometry" />
        </mxCell>
        <mxCell id="hruWKEGabwUJ3pxfg4BR-8" value="2" style="rounded=0;whiteSpace=wrap;html=1;" vertex="1" parent="1">
          <mxGeometry x="280" y="300" width="50" height="30" as="geometry" />
        </mxCell>
        <mxCell id="hruWKEGabwUJ3pxfg4BR-9" value="1" style="rounded=0;whiteSpace=wrap;html=1;" vertex="1" parent="1">
          <mxGeometry x="330" y="260" width="50" height="30" as="geometry" />
        </mxCell>
        <mxCell id="hruWKEGabwUJ3pxfg4BR-10" value="-7" style="rounded=0;whiteSpace=wrap;html=1;" vertex="1" parent="1">
          <mxGeometry x="330" y="300" width="50" height="30" as="geometry" />
        </mxCell>
        <mxCell id="hruWKEGabwUJ3pxfg4BR-11" value="3" style="rounded=0;whiteSpace=wrap;html=1;" vertex="1" parent="1">
          <mxGeometry x="380" y="260" width="50" height="30" as="geometry" />
        </mxCell>
        <mxCell id="hruWKEGabwUJ3pxfg4BR-12" value="4" style="rounded=0;whiteSpace=wrap;html=1;" vertex="1" parent="1">
          <mxGeometry x="380" y="300" width="50" height="30" as="geometry" />
        </mxCell>
        <mxCell id="hruWKEGabwUJ3pxfg4BR-13" value="1.333" style="rounded=0;whiteSpace=wrap;html=1;" vertex="1" parent="1">
          <mxGeometry x="450" y="220" width="50" height="30" as="geometry" />
        </mxCell>
        <mxCell id="hruWKEGabwUJ3pxfg4BR-14" value="0.333" style="rounded=0;whiteSpace=wrap;html=1;" vertex="1" parent="1">
          <mxGeometry x="450" y="260" width="50" height="30" as="geometry" />
        </mxCell>
        <mxCell id="hruWKEGabwUJ3pxfg4BR-15" value="-0.333" style="rounded=0;whiteSpace=wrap;html=1;" vertex="1" parent="1">
          <mxGeometry x="450" y="300" width="50" height="30" as="geometry" />
        </mxCell>
        <mxCell id="hruWKEGabwUJ3pxfg4BR-16" value="0.75" style="rounded=0;whiteSpace=wrap;html=1;" vertex="1" parent="1">
          <mxGeometry x="280" y="390" width="50" height="30" as="geometry" />
        </mxCell>
        <mxCell id="hruWKEGabwUJ3pxfg4BR-17" value="1" style="rounded=0;whiteSpace=wrap;html=1;" vertex="1" parent="1">
          <mxGeometry x="330" y="390" width="50" height="30" as="geometry" />
        </mxCell>
        <mxCell id="hruWKEGabwUJ3pxfg4BR-18" value="3.75" style="rounded=0;whiteSpace=wrap;html=1;" vertex="1" parent="1">
          <mxGeometry x="380" y="390" width="50" height="30" as="geometry" />
        </mxCell>
        <mxCell id="hruWKEGabwUJ3pxfg4BR-19" value="x4" style="rounded=0;whiteSpace=wrap;html=1;" vertex="1" parent="1">
          <mxGeometry x="230" y="340" width="50" height="30" as="geometry" />
        </mxCell>
        <mxCell id="hruWKEGabwUJ3pxfg4BR-20" value="5" style="rounded=0;whiteSpace=wrap;html=1;" vertex="1" parent="1">
          <mxGeometry x="280" y="340" width="50" height="30" as="geometry" />
        </mxCell>
        <mxCell id="hruWKEGabwUJ3pxfg4BR-21" value="7" style="rounded=0;whiteSpace=wrap;html=1;" vertex="1" parent="1">
          <mxGeometry x="330" y="340" width="50" height="30" as="geometry" />
        </mxCell>
        <mxCell id="hruWKEGabwUJ3pxfg4BR-22" value="6" style="rounded=0;whiteSpace=wrap;html=1;" vertex="1" parent="1">
          <mxGeometry x="380" y="340" width="50" height="30" as="geometry" />
        </mxCell>
        <mxCell id="hruWKEGabwUJ3pxfg4BR-23" value="6" style="rounded=0;whiteSpace=wrap;html=1;" vertex="1" parent="1">
          <mxGeometry x="450" y="340" width="50" height="30" as="geometry" />
        </mxCell>
        <mxCell id="hruWKEGabwUJ3pxfg4BR-24" value="" style="rounded=0;whiteSpace=wrap;html=1;fillColor=none;strokeColor=#FF6666;" vertex="1" parent="1">
          <mxGeometry x="290" y="210" width="30" height="170" as="geometry" />
        </mxCell>
        <mxCell id="hruWKEGabwUJ3pxfg4BR-25" value="" style="rounded=0;whiteSpace=wrap;html=1;fillColor=none;strokeColor=#FF6666;" vertex="1" parent="1">
          <mxGeometry x="340" y="210" width="30" height="170" as="geometry" />
        </mxCell>
        <mxCell id="hruWKEGabwUJ3pxfg4BR-26" value="" style="rounded=0;whiteSpace=wrap;html=1;fillColor=none;strokeColor=#FF6666;" vertex="1" parent="1">
          <mxGeometry x="390" y="210" width="30" height="170" as="geometry" />
        </mxCell>
        <mxCell id="hruWKEGabwUJ3pxfg4BR-27" value="" style="rounded=0;whiteSpace=wrap;html=1;fillColor=none;strokeColor=#80FF00;" vertex="1" parent="1">
          <mxGeometry x="284" y="225" width="140" height="20" as="geometry" />
        </mxCell>
        <mxCell id="hruWKEGabwUJ3pxfg4BR-28" value="" style="rounded=0;whiteSpace=wrap;html=1;fillColor=none;strokeColor=#80FF00;" vertex="1" parent="1">
          <mxGeometry x="285" y="265" width="140" height="20" as="geometry" />
        </mxCell>
        <mxCell id="hruWKEGabwUJ3pxfg4BR-29" value="" style="rounded=0;whiteSpace=wrap;html=1;fillColor=none;strokeColor=#80FF00;" vertex="1" parent="1">
          <mxGeometry x="285" y="305" width="140" height="20" as="geometry" />
        </mxCell>
        <mxCell id="hruWKEGabwUJ3pxfg4BR-30" value="" style="rounded=0;whiteSpace=wrap;html=1;fillColor=none;strokeColor=#80FF00;" vertex="1" parent="1">
          <mxGeometry x="285" y="345" width="140" height="20" as="geometry" />
        </mxCell>
        <mxCell id="hruWKEGabwUJ3pxfg4BR-31" value="" style="shape=flexArrow;endArrow=classic;html=1;rounded=0;fillColor=#99FF33;strokeColor=none;" edge="1" parent="1">
          <mxGeometry width="50" height="50" relative="1" as="geometry">
            <mxPoint x="264" y="190" as="sourcePoint" />
            <mxPoint x="440" y="190" as="targetPoint" />
          </mxGeometry>
        </mxCell>
        <mxCell id="hruWKEGabwUJ3pxfg4BR-33" value="layer norm" style="rounded=0;whiteSpace=wrap;html=1;fillColor=none;strokeColor=none;" vertex="1" parent="1">
          <mxGeometry x="290" y="160" width="120" height="30" as="geometry" />
        </mxCell>
        <mxCell id="hruWKEGabwUJ3pxfg4BR-34" value="" style="shape=flexArrow;endArrow=classic;html=1;rounded=0;fillColor=#FF3333;strokeColor=none;" edge="1" parent="1">
          <mxGeometry width="50" height="50" relative="1" as="geometry">
            <mxPoint x="200" y="230" as="sourcePoint" />
            <mxPoint x="200" y="360" as="targetPoint" />
          </mxGeometry>
        </mxCell>
        <mxCell id="hruWKEGabwUJ3pxfg4BR-35" value="batch&lt;br&gt;norm" style="rounded=0;whiteSpace=wrap;html=1;fillColor=none;strokeColor=none;" vertex="1" parent="1">
          <mxGeometry x="150" y="260" width="50" height="50" as="geometry" />
        </mxCell>
      </root>
    </mxGraphModel>
  </diagram>
</mxfile>
